HIERARCHY
ROOT Hips
{
	OFFSET 0.0000 0.0000 0.0000
	CHANNELS 6 Xposition Yposition Zposition Zrotation Xrotation Yrotation
	JOINT Spine1
	{
		OFFSET -0.0137 5.0038 -0.0537
		CHANNELS 3 Zrotation Xrotation Yrotation
		JOINT Spine2
		{
			OFFSET -0.0000 7.1253 -0.0298
			CHANNELS 3 Zrotation Xrotation Yrotation
			JOINT Chest
			{
				OFFSET -0.0000 7.5501 -0.8160
				CHANNELS 3 Zrotation Xrotation Yrotation
				JOINT Neck1
				{
					OFFSET -0.1817 26.3113 -0.5533
					CHANNELS 3 Zrotation Xrotation Yrotation
					JOINT Neck2
					{
						OFFSET -0.0000 7.7094 2.3026
						CHANNELS 3 Zrotation Xrotation Yrotation
						JOINT Head
						{
							OFFSET -0.0000 6.1289 1.9537
							CHANNELS 3 Zrotation Xrotation Yrotation
							JOINT Jaw
							{
								OFFSET 0.0026 0.4756 3.0949
								CHANNELS 3 Zrotation Xrotation Yrotation
								End Site
								{
									OFFSET 0.0 1.0 0.0
								}
							}
							JOINT LeftEye
							{
								OFFSET 3.2064 5.3802 7.5869
								CHANNELS 3 Zrotation Xrotation Yrotation
								End Site
								{
									OFFSET 0.0 1.0 0.0
								}
							}
							JOINT RightEye
							{
								OFFSET -3.2224 5.3619 7.5582
								CHANNELS 3 Zrotation Xrotation Yrotation
								End Site
								{
									OFFSET 0.0 1.0 0.0
								}
							}
						}
					}
				}
				JOINT LeftShoulder
				{
					OFFSET 1.6217 23.2372 5.1134
					CHANNELS 3 Zrotation Xrotation Yrotation
					JOINT LeftArm
					{
						OFFSET 14.9198 0.0000 -5.5023
						CHANNELS 3 Zrotation Xrotation Yrotation
						JOINT LeftForeArm
						{
							OFFSET 28.7393 0.0000 -0.0026
							CHANNELS 3 Zrotation Xrotation Yrotation
							JOINT LeftHand
							{
								OFFSET 27.0940 -0.0000 0.0026
								CHANNELS 3 Zrotation Xrotation Yrotation
								JOINT LeftHandThumbEnd
								{
									OFFSET 12.2686 -3.2202 4.8331
									CHANNELS 3 Zrotation Xrotation Yrotation
									End Site
									{
										OFFSET 0.0 1.0 0.0
									}
								}
								JOINT LeftHandMiddleEnd
								{
									OFFSET 19.0120 -0.3129 -0.0340
									CHANNELS 3 Zrotation Xrotation Yrotation
									End Site
									{
										OFFSET 0.0 1.0 0.0
									}
								}
							}
						}
					}
				}
				JOINT RightShoulder
				{
					OFFSET -1.3801 23.1803 5.2142
					CHANNELS 3 Zrotation Xrotation Yrotation
					JOINT RightArm
					{
						OFFSET -15.0372 0.0000 -5.5456
						CHANNELS 3 Zrotation Xrotation Yrotation
						JOINT RightForeArm
						{
							OFFSET -28.7366 0.0000 -0.0026
							CHANNELS 3 Zrotation Xrotation Yrotation
							JOINT RightHand
							{
								OFFSET -27.1336 -0.0000 0.0026
								CHANNELS 3 Zrotation Xrotation Yrotation
								JOINT RightHandThumbEnd
								{
									OFFSET -12.2642 -3.2115 4.8040
									CHANNELS 3 Zrotation Xrotation Yrotation
									End Site
									{
										OFFSET 0.0 1.0 0.0
									}
								}
								JOINT RightHandMiddleEnd
								{
									OFFSET -19.0006 -0.3066 -0.0316
									CHANNELS 3 Zrotation Xrotation Yrotation
									End Site
									{
										OFFSET 0.0 1.0 0.0
									}
								}
							}
						}
					}
				}
			}
		}
	}
	JOINT LeftLeg
	{
		OFFSET 10.0432 -8.4345 2.5957
		CHANNELS 3 Zrotation Xrotation Yrotation
		JOINT LeftShin
		{
			OFFSET -0.0000 -43.2218 -0.8029
			CHANNELS 3 Zrotation Xrotation Yrotation
			JOINT LeftFoot
			{
				OFFSET 0.0000 -42.1551 -3.4815
				CHANNELS 3 Zrotation Xrotation Yrotation
				JOINT LeftToeBase
				{
					OFFSET 0.0000 -5.0595 13.2315
					CHANNELS 3 Zrotation Xrotation Yrotation
					End Site
					{
						OFFSET 0.0 1.0 0.0
					}
				}
			}
		}
	}
	JOINT RightLeg
	{
		OFFSET -10.0473 -8.2953 2.6203
		CHANNELS 3 Zrotation Xrotation Yrotation
		JOINT RightShin
		{
			OFFSET 0.0000 -43.3622 -0.8056
			CHANNELS 3 Zrotation Xrotation Yrotation
			JOINT RightFoot
			{
				OFFSET 0.0000 -42.1174 -3.4784
				CHANNELS 3 Zrotation Xrotation Yrotation
				JOINT RightToeBase
				{
					OFFSET -0.0000 -5.0796 13.2842
					CHANNELS 3 Zrotation Xrotation Yrotation
					End Site
					{
						OFFSET 0.0 1.0 0.0
					}
				}
			}
		}
	}
}
MOTION
Frames: 10
Frame Time: 0.033333
-0.4161 98.5407 6.5004 3.3665 12.6087 0.8546 -3.1753 1.8963 -0.4396 -1.2468 -4.1659 0.3684 -5.6207 13.3928 -2.5430 -9.9860 17.6545 6.4808 2.2185 -4.0731 11.2442 -7.0124 -12.9918 14.7593 0.0727 -0.0615 -0.1253 0.7803 -10.4828 -3.9788 -0.6463 -10.5135 3.7355 -1.4486 12.8944 -6.7059 -49.8175 -15.4000 -27.6702 -1.5893 0.3978 -68.2605 105.7959 -67.1916 -61.3115 -15.8118 10.2074 14.2929 -58.8671 1.5423 1.9727 -2.7565 12.6751 7.4554 39.0192 16.7731 43.3145 0.3504 2.4196 99.2535 -45.8377 55.8774 -44.0383 15.5275 7.3055 -16.4876 50.2229 -3.1446 -6.0659 0.5619 -26.1637 12.6975 0.0269 17.4364 -0.1370 -7.6097 0.0011 3.8918 1.6174 -0.5784 -2.0825 -12.0044 -27.9562 -16.5607 0.1070 16.1786 0.4715 14.3881 1.3886 -10.8602 -1.3934 -1.4197 1.0899
-0.3084 98.5161 6.2682 3.2314 13.0910 1.8433 -3.2379 2.2118 -0.4299 -1.2734 -4.0661 0.4239 -5.6922 13.5275 -2.5580 -9.8851 18.0056 6.4714 2.0240 -4.0375 11.2322 -7.2576 -12.9868 14.4791 0.0475 -0.0453 -0.0782 0.7477 -10.4519 -3.9274 -0.6655 -10.4777 3.7882 -0.9308 12.8936 -6.7268 -49.1808 -16.3270 -28.5562 -1.6635 0.1212 -68.1324 100.4693 -67.3863 -56.2991 -16.1254 10.1695 14.2941 -59.1559 1.5624 2.0629 -3.0570 12.7430 7.3122 38.8128 16.8493 43.0356 0.3768 2.3349 99.9561 -45.7129 55.5818 -44.1561 15.3546 7.3279 -16.4313 50.1736 -3.1024 -5.9843 0.6646 -27.2930 12.0435 -0.0093 17.8447 -0.1925 -7.6675 -0.0087 3.4008 1.6112 -0.3557 -2.0763 -11.7865 -28.3310 -16.6844 0.0824 16.2567 0.4153 14.5261 1.5371 -11.6690 -1.4024 -1.3535 1.1096
-0.2591 98.4279 5.9123 3.1687 13.6162 2.9808 -3.3432 2.5161 -0.4528 -1.2925 -3.9572 0.4643 -5.7192 13.8054 -2.4857 -9.8096 18.4490 6.5461 1.8212 -4.0000 11.0699 -7.5798 -13.2183 14.2655 0.0464 -0.0304 -0.0685 0.7378 -10.4383 -3.9135 -0.6583 -10.4615 3.7920 -0.3076 12.8562 -6.5977 -48.4128 -17.0206 -29.7325 -1.5363 -0.1364 -68.1833 93.4482 -67.9948 -49.7363 -16.3097 10.1438 14.3676 -59.3826 1.5870 2.0541 -3.4016 12.8761 7.3080 38.7928 17.2979 42.6838 0.4243 2.3319 100.4786 -46.5701 55.4111 -45.3181 15.2984 7.3815 -16.4648 50.2581 -3.0484 -5.9646 0.7094 -28.5459 11.2612 -0.0140 18.2685 -0.2066 -7.5954 0.1408 2.8719 1.6121 -0.1692 -2.0777 -11.5334 -29.0534 -17.1399 0.0846 16.7959 0.3883 14.7563 1.3655 -12.2472 -1.4055 -1.3003 1.1260
-0.2406 98.3267 5.5662 3.1257 14.0998 4.0465 -3.4435 2.8236 -0.5010 -1.3101 -3.8423 0.5826 -5.7282 14.1527 -2.3620 -9.8158 18.8386 6.6878 1.6338 -3.9699 10.8114 -7.7996 -13.7341 14.0680 0.0490 -0.0211 -0.0644 0.7332 -10.4272 -3.9037 -0.6479 -10.4430 3.7856 0.2463 12.8605 -6.2722 -47.5253 -17.4957 -30.9605 -1.4092 -0.3235 -68.3985 85.7882 -68.4991 -42.7716 -16.4434 10.1334 14.4722 -59.4447 1.6338 2.0130 -3.7857 13.0768 7.4156 39.1283 18.1404 42.5376 0.4904 2.3118 100.5217 -47.3191 55.0068 -46.2612 15.2875 7.4553 -16.5473 50.3695 -3.0622 -5.9640 0.7226 -29.7177 10.5662 -0.0027 18.6147 -0.1959 -7.4530 0.4215 2.3330 1.6136 -0.0701 -2.0722 -11.2318 -29.8332 -17.7870 0.0949 17.4184 0.3862 15.0110 1.0910 -12.5459 -1.4062 -1.3391 1.1309
-0.2378 98.2396 5.2036 3.1314 14.5641 5.1072 -3.5193 3.1247 -0.5315 -1.3220 -3.7285 0.7100 -5.7728 14.5606 -2.1966 -9.7802 19.0640 6.8536 1.4284 -3.9284 10.5126 -7.9074 -14.4736 13.8207 0.0492 -0.0122 -0.0582 0.7280 -10.4084 -3.8894 -0.6426 -10.4207 3.7831 0.6275 12.9018 -5.8138 -46.4255 -17.7752 -32.2021 -1.3132 -0.4139 -68.7840 77.6546 -68.7809 -35.4078 -16.5914 10.1012 14.5451 -59.5116 1.6641 2.0030 -4.2071 13.3169 7.5880 39.8217 19.3487 42.7702 0.5197 2.3116 99.9286 -47.2773 54.1304 -46.5981 15.3143 7.5208 -16.5739 50.4758 -3.1277 -5.9670 0.6717 -30.8249 9.9831 0.0082 18.8977 -0.1744 -7.2478 0.7470 1.6826 1.6157 -0.0390 -2.0792 -10.9475 -30.6186 -18.4828 0.1039 18.0394 0.3837 15.2038 0.8558 -12.7446 -1.4090 -1.4182 1.1247
-0.2313 98.1241 4.8632 3.1371 14.9697 6.0755 -3.5583 3.4009 -0.5337 -1.3315 -3.6118 0.8429 -5.8037 15.0031 -2.0402 -9.7250 19.1305 6.9856 1.2285 -3.9051 10.2478 -7.9569 -15.2547 13.5552 0.0514 -0.0042 -0.0554 0.7268 -10.3915 -3.8808 -0.6367 -10.4039 3.7782 0.8095 12.9591 -5.3160 -45.1386 -17.8169 -33.3315 -1.1660 -0.4712 -69.4514 69.3218 -68.6964 -27.6319 -16.7175 10.0813 14.5646 -59.6454 1.6953 1.9984 -4.6347 13.6192 7.7867 40.6087 20.6492 43.2376 0.4986 2.2612 98.9156 -46.8762 53.1421 -46.8255 15.2540 7.5980 -16.4971 50.5162 -3.1510 -5.9337 0.5843 -31.8894 9.6230 0.0098 19.2767 -0.1666 -7.0620 1.0186 0.9158 1.6158 -0.0231 -2.0817 -10.7046 -31.3406 -19.0810 0.1269 18.6719 0.3918 15.3782 0.6551 -12.9241 -1.4105 -1.4580 1.1231
-0.2557 97.9893 4.5524 3.1675 15.2375 6.9688 -3.5916 3.6911 -0.5170 -1.3343 -3.4861 0.9358 -5.8328 15.4282 -1.8660 -9.6044 19.1333 7.0716 1.0431 -3.8908 10.0045 -7.9844 -15.9981 13.2859 0.0530 0.0059 -0.0556 0.7294 -10.3853 -3.8772 -0.6361 -10.3984 3.7738 0.9341 13.0498 -4.9116 -43.8129 -17.6493 -34.1874 -0.9313 -0.4814 -70.4766 61.7744 -68.1487 -20.4991 -16.8220 10.0738 14.6204 -59.7712 1.7202 2.0134 -4.9961 13.9366 7.9452 41.3518 21.7392 43.7034 0.3414 2.1779 97.7902 -46.6423 52.3744 -47.1083 15.2470 7.6892 -16.4110 50.6109 -3.1555 -5.8940 0.4526 -32.8351 9.4540 0.0011 19.8000 -0.1768 -6.9589 1.1170 0.1383 1.6182 0.0491 -2.0898 -10.5656 -31.9641 -19.5764 0.1447 19.3685 0.4098 15.5104 0.3417 -13.1142 -1.4092 -1.4288 1.1239
-0.2542 97.8179 4.2552 3.2246 15.3592 7.7973 -3.6415 3.9673 -0.4786 -1.3334 -3.3689 0.9866 -5.8463 15.8241 -1.7400 -9.3876 19.1210 7.0940 0.8869 -3.8747 9.8254 -8.0620 -16.6723 13.1183 0.0580 0.0216 -0.0661 0.7377 -10.3789 -3.8877 -0.6341 -10.3869 3.7606 1.0322 13.1112 -4.6814 -42.6224 -17.3385 -34.6369 -0.6519 -0.4669 -71.6867 56.2401 -67.3224 -15.1679 -16.8987 10.0729 14.7001 -59.9174 1.7353 2.0280 -5.1511 14.2334 8.0598 41.7356 22.3659 43.7992 0.1935 1.9732 96.9860 -47.1762 51.9410 -47.7537 15.2746 7.7564 -16.3508 50.7201 -3.1465 -5.8684 0.2625 -33.6275 9.4506 -0.0130 20.4202 -0.1845 -6.9275 1.1088 -0.6192 1.6202 0.1115 -2.0899 -10.5562 -32.4653 -19.9477 0.1608 20.1175 0.4294 15.6130 -0.0703 -13.3568 -1.4078 -1.3395 1.1327
-0.2486 97.6174 3.9566 3.2817 15.3671 8.5590 -3.6953 4.2182 -0.4512 -1.3312 -3.2711 0.9986 -5.8208 16.1993 -1.6783 -9.1144 19.1209 7.0413 0.7945 -3.8515 9.7220 -8.1740 -17.2823 13.0476 0.0629 0.0390 -0.0768 0.7445 -10.3658 -3.8959 -0.6308 -10.3674 3.7454 1.1572 13.1462 -4.6333 -41.5916 -17.1093 -34.6785 -0.4183 -0.4526 -72.7809 52.5417 -66.5379 -11.4905 -16.8666 10.0381 14.7475 -59.9892 1.7411 2.0223 -5.0824 14.5069 8.1392 41.6418 22.6471 43.4793 0.0174 1.6696 96.6337 -49.0228 51.6350 -49.1516 15.3130 7.7703 -16.3321 50.7228 -3.1417 -5.8686 0.0336 -34.3171 9.5868 -0.0327 21.1141 -0.1876 -6.9128 1.0581 -1.4191 1.6204 0.1398 -2.0702 -10.6520 -32.8787 -20.2039 0.1867 20.9367 0.4670 15.7323 -0.5323 -13.6686 -1.4050 -1.2642 1.1702
-0.2373 97.4579 3.7112 3.3199 15.2605 9.2906 -3.7521 4.4143 -0.4627 -1.3337 -3.1950 0.9666 -5.7341 16.5283 -1.6943 -8.7929 19.2104 6.9361 0.7503 -3.8227 9.6689 -8.2717 -17.8360 13.0568 0.0705 0.0468 -0.0917 0.7486 -10.3510 -3.9075 -0.6187 -10.3455 3.7228 1.3407 13.1925 -4.7205 -40.8398 -17.1538 -34.4635 -0.2657 -0.3899 -73.4636 50.4317 -65.8586 -9.2114 -16.7978 10.0279 14.7832 -60.0334 1.7721 1.9652 -4.8297 14.7153 8.1660 41.1681 22.7678 42.9856 -0.2323 1.2733 96.5724 -51.7120 51.0390 -50.8844 15.3459 7.7604 -16.4055 50.6976 -3.1445 -5.8846 -0.1897 -34.7831 9.7130 -0.0450 21.6749 -0.1857 -6.8987 0.9997 -2.2129 1.6227 0.1569 -2.0462 -10.8146 -33.0961 -20.3807 0.2178 21.6374 0.5295 15.8660 -0.8781 -14.0880 -1.4012 -1.2398 1.2138
